P2
64 32
255
121
119
123
131
138
144
151
158
198
223
241
241
243
251
254
248
249
248
248
242
240
252
251
232
239
215
189
126
114
127
175
210
212
207
237
243
241
182
115
174
198
184
134
113
208
242
246
251
248
225
153
131
197
224
176
140
89
128
200
215
86
0
13
3
121
119
121
128
133
137
143
150
174
200
226
237
242
248
252
250
249
249
251
251
247
242
243
245
241
230
216
171
155
132
149
175
218
232
228
214
197
145
124
176
228
233
196
155
209
237
246
246
252
205
123
106
164
169
113
81
77
108
166
167
71
9
22
16
120
117
118
123
127
129
134
140
149
173
206
229
240
243
247
250
247
255
252
249
252
245
233
230
242
253
255
226
196
132
134
170
210
240
215
186
154
104
106
140
204
243
249
212
226
243
237
207
220
182
121
107
126
96
46
40
25
37
71
62
22
3
0
1
118
115
115
120
123
124
128
134
140
155
184
215
234
240
243
248
246
255
250
241
253
251
219
190
216
232
242
236
217
139
133
166
186
218
220
196
155
94
69
90
175
227
255
241
241
251
216
146
138
126
102
100
102
61
22
27
16
10
24
15
17
15
0
21
117
114
114
119
122
123
127
133
140
145
163
193
221
237
244
248
248
253
251
247
245
230
200
178
188
189
190
205
210
150
154
170
144
149
173
141
98
65
59
128
204
233
252
249
246
250
189
98
60
57
49
59
76
59
28
19
25
22
34
31
38
27
19
80
118
114
114
119
122
123
127
133
138
139
148
170
200
227
242
247
252
243
253
253
220
193
198
210
207
206
198
196
183
146
196
218
204
193
224
182
116
72
62
146
206
216
224
243
241
230
152
70
35
40
36
36
42
39
29
28
5
18
31
36
36
17
36
119
120
116
116
119
122
122
126
131
134
139
142
151
175
208
231
238
250
241
250
226
174
181
228
242
245
246
238
221
179
142
196
191
113
135
200
223
187
125
88
117
137
141
148
185
180
156
91
53
40
42
38
30
21
16
24
38
33
42
28
34
41
26
57
116
122
118
117
120
121
121
124
128
131
141
144
141
157
191
218
227
245
245
244
186
133
194
255
251
255
247
243
242
205
152
151
74
93
109
139
182
174
119
87
73
71
70
66
102
90
67
33
46
41
20
7
13
21
21
23
31
97
87
34
34
52
43
63
79
120
120
121
120
119
120
123
126
126
127
133
140
142
153
188
223
239
239
243
227
207
228
255
254
249
255
227
192
100
95
112
104
100
120
94
113
146
97
49
48
50
57
73
63
71
52
45
28
26
0
7
27
17
11
30
46
119
108
44
20
30
33
59
74
119
119
120
119
119
120
123
126
128
127
131
136
138
146
175
205
225
237
247
239
246
255
252
190
140
114
61
86
116
100
85
104
109
113
112
117
125
85
51
87
106
90
76
55
60
34
27
25
8
2
9
20
22
26
34
37
71
63
10
0
15
24
42
47
117
118
119
119
118
120
124
127
130
127
128
131
132
137
157
178
229
221
239
255
241
191
131
86
97
66
72
106
101
50
74
106
106
80
98
113
126
109
75
108
103
133
121
53
40
28
25
14
10
21
19
14
27
39
36
29
22
31
7
1
22
35
38
22
116
117
118
118
118
120
123
126
130
126
125
127
129
132
142
155
198
206
240
254
190
96
62
79
89
73
107
115
101
45
79
80
59
64
92
100
81
73
99
143
98
134
118
43
31
22
21
9
28
39
23
10
26
34
23
20
10
29
18
4
28
66
64
29
116
117
117
117
117
118
122
125
128
125
124
126
128
130
135
141
152
210
230
173
100
69
76
90
70
97
99
72
106
47
57
79
53
68
48
49
34
45
120
137
129
86
48
25
40
14
11
22
30
32
17
14
28
23
11
17
20
25
11
0
40
112
108
54
116
117
117
117
116
117
120
123
125
125
125
125
127
130
133
136
143
186
163
83
48
69
82
73
85
107
111
75
80
22
55
91
60
67
14
30
50
73
137
109
106
47
24
29
47
23
30
42
25
21
20
31
38
28
24
36
22
14
22
35
95
161
130
59
117
118
118
116
115
115
118
120
123
125
126
126
126
129
132
134
145
139
96
58
69
89
90
88
93
85
85
65
62
36
68
63
34
72
60
71
70
73
125
126
84
36
39
44
41
24
46
48
34
26
32
41
36
36
51
64
25
17
62
102
137
153
101
46
118
119
118
116
114
114
116
119
122
126
128
126
125
127
131
132
142
127
83
62
81
89
76
72
70
118
94
48
66
37
35
45
55
79
80
81
79
77
103
126
128
32
21
45
36
2
30
45
49
36
39
36
21
34
66
78
38
29
90
131
123
97
53
39
126
125
123
119
115
114
115
118
121
124
128
131
129
127
129
133
138
100
66
64
99
84
82
74
81
97
74
56
66
49
35
65
54
69
71
65
110
85
86
138
145
29
36
36
29
8
5
21
18
34
50
49
32
21
32
50
31
36
91
153
135
65
55
101
127
126
125
121
118
116
117
118
125
125
127
130
132
131
130
129
123
89
64
65
102
89
82
73
85
96
73
47
53
52
48
61
31
16
89
66
140
27
70
151
177
41
21
24
32
20
11
19
25
32
42
48
39
22
9
5
10
18
56
99
98
70
75
107
128
129
128
126
122
120
120
120
126
124
124
126
130
132
130
127
118
85
66
63
99
90
82
76
94
95
75
49
48
63
67
61
68
42
43
114
127
112
92
196
130
28
11
11
24
36
34
33
36
27
19
18
21
24
30
36
20
36
60
80
88
85
84
85
130
131
132
130
127
124
123
124
123
124
123
122
124
129
130
128
121
86
71
58
88
84
78
80
89
72
59
46
40
58
72
62
42
33
58
81
115
118
127
183
55
19
27
18
18
45
55
49
23
20
18
16
12
8
12
20
67
79
88
90
93
95
86
72
131
133
133
132
129
126
126
126
123
126
126
121
121
126
130
129
104
76
74
55
80
77
67
75
92
57
45
46
39
56
84
88
119
65
75
31
148
153
205
168
87
57
47
38
24
34
30
24
34
17
1
0
15
44
79
105
96
94
90
86
86
89
90
88
130
131
131
129
126
124
125
126
123
128
128
123
122
126
124
116
68
54
74
56
76
71
54
65
85
48
34
36
28
42
78
99
110
105
95
89
119
132
199
185
108
54
20
46
54
60
51
55
38
25
23
44
75
94
98
96
91
86
85
90
89
83
83
88
127
127
126
123
120
120
121
123
122
125
123
121
124
125
109
88
43
38
73
54
69
64
45
62
65
47
37
29
16
22
47
66
80
89
98
139
180
146
203
141
75
57
43
86
103
123
124
132
163
135
106
98
102
102
93
86
86
83
87
95
95
85
77
76
124
123
121
118
116
115
118
120
119
119
116
117
125
123
94
61
39
36
73
50
60
58
42
66
75
80
77
59
40
36
44
51
58
86
78
135
153
132
215
163
112
156
163
167
135
139
131
124
104
95
88
89
92
91
91
92
95
88
82
80
83
85
85
85
124
124
122
119
116
115
116
118
118
130
124
115
122
115
76
40
25
35
55
45
38
47
46
56
95
48
85
93
72
119
27
47
73
33
48
126
124
149
171
166
160
147
137
137
133
119
102
93
97
96
95
95
95
93
90
87
81
85
89
92
91
88
86
85
117
117
116
113
110
109
111
112
107
115
120
128
130
101
57
34
17
25
59
59
38
32
34
51
92
70
78
94
111
167
118
42
42
26
59
94
118
96
120
132
150
134
119
113
110
105
102
102
104
103
101
100
100
97
94
90
83
86
89
90
89
87
86
86
116
116
116
114
111
110
111
113
113
113
121
137
129
77
30
22
9
14
60
71
42
28
29
41
59
83
83
92
119
170
202
52
36
51
87
105
130
95
104
137
116
106
97
94
97
102
110
117
109
107
105
103
102
100
96
93
86
87
88
88
86
85
86
87
116
117
117
116
113
112
113
115
122
118
120
130
116
62
19
17
2
15
67
76
46
40
38
39
41
75
84
82
98
132
224
82
44
74
100
127
112
109
98
139
90
91
93
97
101
105
111
115
107
105
102
101
100
99
96
93
88
88
87
85
83
84
86
88
112
114
115
114
113
112
112
114
115
118
117
116
99
56
19
13
0
37
90
77
43
47
53
56
65
65
80
76
81
100
203
132
60
86
123
124
77
92
98
128
91
97
103
105
104
102
101
99
102
100
98
98
98
98
96
95
88
88
86
83
82
83
87
90
112
114
116
116
115
114
115
116
112
123
122
107
82
42
10
4
16
73
113
75
38
44
56
77
79
75
95
91
63
66
161
195
75
93
144
90
61
76
110
125
94
99
101
99
99
101
101
100
100
98
96
96
97
98
97
96
86
86
85
83
82
83
88
91
111
113
116
117
116
115
115
116
114
125
122
101
65
24
9
22
66
106
111
63
44
47
48
77
81
102
106
108
55
51
124
224
100
116
129
50
60
100
109
114
92
95
95
93
96
105
109
107
100
97
94
93
94
94
93
92
84
84
84
83
82
84
88
92
104
107
110
111
110
109
109
110
109
117
114
93
55
18
24
61
115
124
94
49
56
57
38
63
98
127
95
110
67
69
110
211
153
169
118
49
77
155
108
107
95
98
97
94
98
105
106
101
99
96
92
90
90
90
88
87
82
83
83
83
83
85
89
93
