P2
102 76
255
7 9 10 12 12 14 21 27 33 40 45 49 55 62 71 80 83 83 82 83 84 82 84 90 89 98 103 
107 114 119 119 117 109 102 95 87 73 61 55 52 46 46 47 46 46 47 48 50 46 45 43 
42 41 38 35 32 31 32 35 40 47 54 61 67 70 81 83 81 84 82 78 84 87 77 71 69 66 
69 80 89 100 108 117 122 129 132 125 114 103 97 87 77 67 58 50 45 39 34 28 22 
17 13 8 9 10 11 11 13 19 25 31 38 44 49 56 63 72 81 85 86 85 86 87 84 86 92 94 
110 117 118 120 120 119 116 111 102 92 82 71 63 55 46 42 42 42 42 43 44 46 48 
47 45 43 42 41 39 36 34 30 31 35 41 47 54 61 67 75 79 80 82 86 85 84 89 79 80 
79 75 72 74 91 113 136 133 133 132 131 131 125 115 104 98 88 78 68 59 51 45 40 
35 28 23 18 14 9 9 10 11 11 12 17 22 28 36 42 49 57 65 75 84 90 91 90 90 90 87 
89 95 108 140 155 149 137 126 122 118 111 104 93 80 68 61 51 40 39 39 39 39 41 
43 45 46 46 44 43 42 41 39 36 34 30 32 36 42 48 54 62 69 78 79 82 86 87 84 84 
87 85 82 72 68 86 116 136 142 136 136 144 147 138 130 125 120 106 100 89 79 69 
60 52 46 41 36 29 24 18 14 9 9 10 11 11 12 15 19 25 32 40 49 58 67 77 88 94 95 
94 93 92 89 90 96 122 164 181 175 162 145 133 120 111 105 96 83 67 56 47 40 38 
38 38 40 42 44 45 45 44 44 44 43 42 40 37 34 32 34 38 44 50 56 64 71 77 79 86 
89 86 85 88 90 82 80 84 115 150 146 122 114 105 107 125 142 139 130 124 119 
108 101 91 80 70 61 52 47 42 37 30 24 19 15 9 9 10 11 12 12 14 16 21 29 37 47 
58 67 79 91 96 98 97 95 93 90 91 95 126 164 173 176 180 172 154 129 114 103 
93 84 69 55 46 41 36 37 39 42 44 45 45 45 45 45 46 46 45 42 39 37 34 36 40 45 
50 57 65 71 77 80 86 88 87 89 94 94 89 101 145 161 128 113 113 95 100 92 101 
124 138 138 129 120 110 103 93 82 71 62 53 47 42 37 30 24 19 15 9 9 10 11 12 
11 12 14 17 24 33 44 56 66 78 92 97 100 99 96 94 91 91 96 124 162 166 169 183 
184 177 156 128 107 89 80 69 56 46 39 34 37 40 43 45 46 47 47 47 47 48 47 46 
44 42 41 39 39 41 46 51 58 65 71 77 82 87 90 90 90 91 92 115 163 171 134 111 
104 101 104 102 92 92 112 134 141 132 124 112 105 94 83 73 62 53 48 42 37 31 
25 19 15 10 9 9 11 11 10 10 10 13 19 28 39 52 63 76 90 96 100 100 97 94 92 93 
98 119 161 164 162 172 177 186 180 156 129 101 82 69 57 47 39 36 39 43 45 47 
49 51 54 52 52 51 49 48 47 47 47 46 44 44 48 54 61 67 72 78 85 90 93 93 92 105 
126 181 166 131 110 114 111 98 98 89 86 83 98 126 137 129 124 114 107 96 85 74 
64 54 48 43 38 31 25 20 15 10 9 9 11 11 9 8 8 10 16 25 36 49 60 74 89 95 99 100 
97 95 94 95 100 111 154 154 151 160 168 184 184 183 157 122 92 70 59 51 43 38 
42 46 48 49 52 57 61 59 57 55 53 52 52 54 55 51 48 47 50 57 63 70 74 79 87 90 
92 93 101 138 188 169 133 117 120 112 101 97 91 88 84 75 89 126 143 134 127 
115 108 97 86 75 64 55 49 43 38 32 25 20 16 11 10 10 9 9 8 7 7 6 10 19 32 47 
58 71 86 92 98 99 96 97 94 96 104 114 146 152 151 159 165 177 183 184 182 162 
119 80 63 56 47 45 44 51 58 55 53 63 78 76 60 59 59 55 58 67 78 62 49 59 55 69 
73 78 75 83 91 90 98 95 133 194 180 134 124 121 117 106 102 97 85 88 81 72 87 
127 138 136 128 118 109 99 88 75 65 57 50 44 39 32 26 20 15 10 10 9 9 8 7 6 6 
4 8 14 26 40 52 67 83 92 98 99 97 98 97 100 110 119 147 162 167 171 172 178 
185 185 187 182 156 114 78 59 52 48 53 59 65 67 64 77 103 93 72 66 67 65 69 84 
103 77 60 62 71 106 105 90 83 91 95 95 99 138 185 182 154 127 118 115 114 107 
104 100 89 82 78 71 82 123 140 141 129 119 110 100 89 76 66 58 50 45 39 32 26 
20 16 10 10 9 8 7 6 5 4 4 6 10 20 34 47 64 81 90 98 99 99 99 99 105 118 125 
148 169 170 170 174 175 180 187 187 190 183 155 116 81 59 57 67 73 78 79 74 92 
132 119 92 82 84 82 87 106 130 109 90 83 102 150 140 110 101 105 103 107 144 
190 193 160 129 124 115 112 111 107 105 102 93 78 74 67 82 125 142 143 132 121 
112 102 90 77 67 58 51 45 40 33 26 20 16 10 9 8 7 6 4 4 3 3 4 7 17 30 44 62 80 
87 95 98 99 100 99 106 121 137 154 171 164 164 178 179 179 188 188 190 189 181 
160 121 84 73 87 104 114 107 98 118 156 147 122 116 120 120 127 142 161 142 
131 130 152 188 171 141 131 125 119 148 197 199 163 141 130 123 117 113 110 
106 105 103 98 84 72 64 88 132 143 142 136 123 114 103 91 78 67 59 51 46 40 33 
27 21 17 10 9 8 7 5 4 3 2 0 2 5 14 27 40 58 76 84 93 97 99 100 99 106 121 151 
161 174 170 173 186 189 191 190 194 196 193 190 183 159 129 104 119 150 166 
150 137 153 175 178 164 167 174 177 183 189 197 190 181 180 192 207 199 191 
186 163 155 193 194 160 141 125 130 123 119 115 110 106 103 103 101 94 78 68 
89 135 146 145 138 125 116 105 93 79 68 59 51 46 41 34 27 21 17 10 10 9 7 6 4 
3 3 1 3 6 14 26 38 55 73 84 92 97 100 102 101 108 123 153 165 179 182 185 189 
191 198 196 196 197 196 193 190 179 164 149 156 182 194 176 167 179 187 191 
187 198 205 205 206 202 198 196 186 181 183 182 184 193 189 182 179 176 149 
127 128 124 126 125 123 117 112 106 102 98 97 99 89 77 89 133 151 151 139 127 
118 107 94 80 68 59 51 47 41 34 28 22 18 11 10 9 8 6 5 4 3 3 5 7 14 24 35 52 
70 80 87 92 96 100 101 109 125 149 178 191 189 187 184 187 193 199 197 198 199 
198 197 192 185 187 187 195 197 188 188 194 196 188 189 204 209 201 194 184 
178 176 176 175 179 174 171 174 164 167 163 136 124 124 123 130 127 123 122 
117 113 111 105 98 95 98 95 86 97 138 155 154 141 129 120 108 95 81 69 60 52 
47 42 35 28 22 18 11 11 10 8 7 5 4 4 4 5 6 12 21 31 48 66 74 80 84 89 94 96 105 
122 153 199 209 193 183 183 189 189 197 201 205 204 201 205 206 202 203 203 
201 199 204 207 206 204 195 198 215 219 206 194 184 180 175 178 173 175 172 
168 171 166 161 146 138 130 127 125 116 117 116 115 113 113 117 113 105 100 
97 94 91 109 147 156 153 145 130 121 109 96 81 70 61 52 47 42 35 28 23 18 11 
11 11 10 8 7 7 7 6 6 7 11 17 28 44 58 66 72 77 80 91 97 100 117 169 206 197 
187 184 178 194 196 207 211 213 213 213 214 214 211 210 209 199 205 220 222 
212 199 194 209 220 218 209 196 183 176 177 175 173 173 173 172 170 167 160 
151 144 136 125 115 114 114 119 120 119 116 116 117 114 109 95 100 90 121 156 
163 151 151 133 122 110 97 82 70 61 54 48 42 35 29 23 18 11 12 12 11 9 8 8 9 7 
7 8 12 16 24 38 51 56 63 72 78 85 88 99 127 177 201 191 186 189 185 198 206 
209 214 218 219 219 220 217 213 214 212 200 210 230 227 206 189 193 206 214 
212 203 190 180 177 177 176 174 173 172 170 168 166 159 152 145 135 123 116 
115 114 108 105 103 107 114 118 117 115 108 89 92 136 156 162 160 150 135 123 
111 98 83 71 62 55 48 43 36 29 23 19 12 13 13 12 11 11 11 11 9 8 9 12 15 20 31 
41 49 56 66 72 76 80 101 142 185 193 186 187 196 194 199 210 212 217 223 225 
225 224 219 213 217 219 209 218 237 225 197 181 190 202 208 203 193 183 177 
178 178 176 175 173 172 169 166 164 155 153 147 136 123 118 114 108 93 86 80 
79 81 89 104 118 116 95 107 148 158 162 164 152 137 125 113 100 85 72 63 56 49 
44 37 30 24 20 13 13 14 13 13 13 13 14 11 10 10 12 14 17 25 33 46 50 57 61 68 
77 105 149 170 174 175 182 195 196 194 204 215 219 224 226 227 226 220 214 219 
228 221 225 234 214 188 181 185 200 205 196 185 178 177 179 179 176 173 172 
172 169 164 160 150 151 148 137 126 121 112 100 80 80 79 76 72 72 83 95 108 
114 127 149 162 166 162 156 139 127 115 101 86 73 64 57 50 45 37 31 25 20 13 
13 14 14 14 14 15 15 14 11 10 11 12 15 21 28 38 41 45 49 61 78 104 141 153 160 
172 182 199 207 203 210 218 221 223 225 227 228 224 219 222 234 225 222 224 
202 182 183 181 200 206 192 180 179 180 181 178 173 169 169 170 167 160 155 
149 149 145 136 129 125 115 101 93 95 95 91 87 83 83 83 96 114 131 145 164 169 
162 158 141 129 116 103 87 74 64 57 50 45 38 31 25 20 13 14 14 15 15 15 16 16 
15 12 11 12 12 12 17 22 25 30 34 39 57 76 97 126 147 161 178 191 209 220 220 
223 221 223 224 224 227 230 227 223 224 230 217 211 211 195 180 180 179 197 
202 188 179 180 182 181 175 169 165 166 168 164 157 152 152 147 142 136 131 
128 121 111 109 109 105 96 89 88 92 95 95 97 123 145 162 170 168 158 143 131 
118 104 88 75 65 58 51 46 38 32 25 21 13 14 15 15 15 15 16 17 16 13 12 12 11 
10 11 14 14 20 26 32 48 66 85 113 137 157 177 195 213 223 225 225 225 226 225 
225 227 228 224 218 220 221 207 199 200 190 179 175 178 189 191 183 178 178 
179 179 171 167 164 166 166 161 155 153 153 147 142 138 132 128 124 119 111 
113 113 108 99 92 95 101 105 95 126 149 161 169 171 159 145 133 120 106 90 76 
66 59 52 47 39 32 26 21 14 14 15 16 16 16 17 18 16 14 13 13 11 8 7 8 8 14 20 
24 37 52 73 105 128 151 174 199 218 226 230 228 228 228 227 225 225 224 218 
210 212 214 201 194 193 186 178 172 178 182 181 178 177 175 174 176 170 167 
166 167 166 160 156 155 153 147 144 142 134 125 122 121 125 120 118 120 115 
105 102 104 114 110 137 152 162 167 168 160 146 134 121 107 91 77 67 59 53 47 
40 33 27 22 14 15 16 17 17 17 17 18 15 14 13 11 9 8 7 6 8 8 11 22 35 50 71 92 
112 139 170 203 224 228 229 228 225 227 228 223 221 219 207 203 203 206 196 
187 184 179 171 172 169 172 173 176 174 171 173 169 169 160 163 165 160 160 
163 154 154 149 147 141 133 134 134 128 129 129 128 124 116 109 108 111 118 
121 134 150 161 168 167 162 147 137 124 109 91 78 68 60 54 49 41 34 27 22 14 
15 16 17 17 17 18 18 16 15 13 11 9 8 7 6 5 8 14 24 36 51 73 96 115 142 170 200 
224 230 231 230 230 231 228 213 207 197 193 190 191 185 185 180 177 177 170 
168 165 169 168 169 168 167 169 166 153 164 161 155 161 161 156 158 157 153 
148 147 142 138 138 134 136 136 135 130 119 111 113 120 119 123 136 150 160 
166 167 164 148 138 125 110 92 79 69 60 54 49 42 35 28 23 14 15 16 17 17 17 18 
19 16 15 14 12 10 8 7 6 7 7 11 22 36 52 75 99 123 156 183 208 229 231 228 225 
228 221 210 207 184 177 172 167 178 177 184 173 164 171 173 168 161 165 160 
160 163 163 164 161 159 154 151 156 153 146 146 154 153 153 145 148 147 139 
141 141 140 140 139 133 121 112 116 127 123 127 139 151 159 165 167 164 150 
140 127 111 93 80 69 61 55 50 43 36 28 23 14 15 17 17 18 18 19 19 17 16 15 13 
11 9 8 7 10 8 11 25 40 56 84 114 156 189 211 224 234 231 225 223 215 209 171 
130 117 121 136 143 149 159 171 172 173 170 172 166 163 163 154 154 158 157 
156 153 149 148 146 143 133 139 143 141 146 153 146 147 148 139 142 143 141 
141 140 136 124 115 120 131 131 132 140 151 160 167 168 162 151 141 128 112 
94 80 70 61 55 50 43 36 29 24 15 16 17 18 18 18 19 20 18 18 16 14 12 10 9 9 10 
12 18 28 40 63 109 156 204 226 232 233 235 230 225 219 200 174 107 70 54 47 61 
114 135 150 153 170 189 171 171 169 169 167 157 154 153 148 147 144 133 130 
109 90 74 76 85 105 124 142 145 147 147 142 144 143 146 145 145 143 135 128 
130 138 138 136 139 149 161 170 169 161 152 142 129 113 95 81 70 61 55 50 43 
36 29 24 15 16 17 18 18 19 20 20 20 19 17 15 14 12 11 11 11 16 19 24 41 83 151 
210 231 238 234 232 231 225 216 202 176 121 119 121 90 40 41 59 104 145 165 
177 198 179 174 168 171 170 165 161 155 150 145 132 113 70 40 46 41 54 58 54 
81 106 130 139 144 148 148 149 152 152 152 151 147 142 142 145 143 139 139 146 
157 168 169 162 153 143 130 114 96 81 70 61 55 50 43 36 29 23 15 16 18 18 19 
19 20 21 21 20 19 17 15 14 13 13 15 19 21 34 76 140 200 236 234 234 231 230 
224 217 207 188 157 114 196 147 81 17 90 98 62 128 193 206 213 190 174 166 172 
172 171 169 163 159 138 97 48 50 72 74 39 78 108 85 62 83 122 139 146 155 153 
156 156 157 157 156 154 151 150 150 148 144 142 143 148 158 165 163 154 144 
131 115 96 82 70 61 55 50 43 36 29 24 15 16 18 19 19 19 20 21 21 21 19 18 16 
15 14 14 18 22 27 59 130 203 234 233 237 235 233 230 218 211 208 192 159 101 
150 126 58 26 82 110 83 131 214 233 227 191 169 176 175 173 172 171 169 165 
124 55 52 86 113 91 40 83 128 124 79 93 134 150 154 161 154 159 158 160 161 
159 156 156 155 153 151 149 146 141 140 149 160 163 155 145 132 116 97 82 70 
61 56 51 43 36 29 24 15 16 17 18 18 19 20 21 21 21 20 19 18 17 18 19 19 26 35 
94 182 228 235 235 238 235 230 224 221 221 212 198 168 109 101 120 61 33 93 109 
85 156 225 244 223 195 178 175 174 171 176 178 170 164 91 44 76 101 116 72 7 67 
128 117 84 116 147 157 157 160 163 161 162 161 161 160 160 159 157 156 155 151 
150 149 143 140 149 162 156 148 134 115 96 81 70 64 56 51 44 37 30 25 15 16 17 
18 18 19 20 21 21 21 21 20 19 19 19 20 23 28 48 118 199 234 237 237 239 233 
228 225 224 223 212 196 179 136 101 103 94 89 105 93 80 159 231 245 223 198 
181 170 173 179 178 177 171 141 88 53 73 110 119 87 29 75 107 99 115 136 156 
161 161 164 165 163 164 163 163 163 162 161 160 158 156 154 153 151 145 141 
148 160 156 149 134 115 98 82 70 62 56 51 44 37 30 25 15 16 17 18 18 19 20 21 
21 21 22 21 21 20 21 21 25 30 65 145 216 237 238 239 239 231 226 227 229 226 
212 195 185 176 152 133 119 104 100 97 97 173 237 240 216 195 179 167 171 178 
178 181 166 99 76 75 62 89 101 99 79 100 113 121 146 154 161 163 164 166 167 
165 165 165 164 164 164 162 160 158 158 156 154 153 148 142 145 152 155 148 
134 116 99 83 70 61 56 51 44 37 30 25 15 16 17 17 18 18 19 20 20 21 22 22 22 
22 22 22 24 32 79 163 221 235 238 239 238 228 225 230 232 226 211 196 187 177 
173 171 169 165 154 143 145 202 244 236 207 187 177 171 172 175 178 181 159 
97 92 104 98 103 114 121 135 135 145 155 160 161 163 164 166 168 168 168 167 
166 166 165 164 163 160 159 159 156 154 153 150 144 141 142 150 146 135 117 
99 83 70 61 55 51 44 37 30 25 15 16 17 17 17 18 19 20 19 20 21 22 22 22 22 23 
25 39 94 176 223 234 240 238 235 228 227 233 233 225 211 200 187 183 187 182 
174 175 170 164 191 223 242 228 197 175 169 173 176 176 180 176 160 145 142 
134 149 148 153 150 161 162 167 164 165 165 166 168 170 170 169 169 167 167 
166 166 166 165 163 162 160 156 153 153 152 146 139 135 143 143 136 118 98 82 
70 63 55 51 44 37 30 25 15 16 16 17 17 17 18 19 19 20 20 21 21 22 23 24 28 46 
104 182 226 237 242 238 234 229 230 235 232 224 213 204 200 195 189 184 183 
180 182 196 215 232 237 219 190 169 166 173 178 172 178 175 163 174 171 160 
165 165 166 171 165 169 168 169 167 168 169 171 171 169 167 166 164 163 163 
164 164 165 164 164 161 157 154 154 153 149 140 133 137 141 136 119 98 82 70 
63 55 50 44 37 30 25 15 15 16 17 17 17 18 19 19 20 20 20 21 21 23 24 28 45 100 
178 224 237 242 239 234 231 232 235 232 225 216 209 204 204 196 191 190 187 
199 222 224 238 234 207 180 168 169 175 174 168 172 174 167 174 174 175 173 
171 168 177 170 169 165 173 168 169 169 169 169 168 167 165 162 161 160 160 
161 162 162 162 160 158 157 156 154 149 142 135 135 139 135 119 99 83 70 62 55 
50 44 37 30 24 15 15 16 17 17 17 18 19 19 20 20 20 20 21 23 25 26 39 90 169 
219 235 242 240 236 232 233 235 232 226 218 211 209 214 205 194 193 206 220 
215 220 234 224 187 160 158 164 168 169 172 170 169 174 179 180 179 175 177 
172 166 171 172 169 168 168 169 168 167 168 169 169 167 164 163 161 160 160 
161 161 161 158 159 159 157 153 148 142 138 135 139 135 119 100 84 70 60 55 50 
43 36 30 24 13 13 15 16 17 18 18 18 19 19 20 20 21 22 23 25 26 33 87 167 218 
236 240 240 239 235 235 231 228 227 220 218 215 223 215 203 206 212 214 219 
219 234 193 155 142 147 153 151 161 162 167 175 178 177 178 180 181 178 176 
173 170 169 168 168 166 167 168 169 169 168 168 169 167 167 165 162 158 157 
158 160 162 159 154 149 148 147 142 138 134 137 136 121 99 83 71 61 54 50 43 
36 29 24 17 16 16 15 15 16 18 18 20 21 21 20 20 20 22 23 27 33 85 164 217 237 
242 240 237 234 234 229 226 224 218 220 222 221 212 208 214 217 211 206 226 
227 173 130 128 127 130 134 144 159 172 175 174 176 180 181 177 175 173 172 
171 170 168 167 165 166 166 166 164 163 164 166 167 167 166 164 161 159 159 
160 159 157 154 152 151 150 145 141 133 136 135 121 100 83 71 60 54 50 43 36 
29 24 19 18 17 17 17 17 17 18 18 18 19 20 22 24 27 29 29 38 85 153 205 231 240 
239 239 233 227 219 216 216 217 227 233 226 219 218 220 217 204 189 188 193 
151 129 123 126 120 122 134 137 148 166 178 182 182 182 180 177 174 173 173 
171 167 163 163 162 163 163 162 160 161 164 168 168 167 166 163 161 159 157 
156 155 154 153 153 151 146 141 132 134 133 121 101 84 70 60 54 50 43 36 29 24 
16 17 19 20 20 20 19 18 20 21 20 20 21 22 24 26 34 43 74 120 169 212 237 242 
240 231 221 210 206 204 207 221 227 223 224 224 220 218 208 190 156 124 87 129 
123 109 67 66 89 110 143 170 180 178 178 181 181 180 177 174 173 170 165 161 
160 158 158 160 162 162 163 165 165 165 165 165 164 163 160 159 157 157 156 
155 154 152 146 141 133 133 131 121 102 85 70 60 54 50 43 36 29 24 13 15 17 20 
21 22 22 21 18 19 19 19 19 20 23 24 29 32 40 67 122 189 230 241 238 230 219 
208 201 193 191 205 232 230 234 230 221 219 211 192 168 133 90 129 123 105 60 
67 106 141 173 180 178 182 184 181 177 178 177 174 172 170 167 163 152 145 141 
143 147 150 153 156 157 158 160 162 163 163 163 162 160 159 158 157 156 154 
150 145 136 132 129 120 103 85 71 60 54 50 43 36 29 24 14 14 15 17 19 21 23 25 
21 21 21 21 21 22 23 24 28 28 30 56 122 198 238 243 237 228 214 201 194 185 
186 207 239 233 231 225 215 210 199 178 164 168 134 108 95 93 95 127 157 167 
172 169 170 176 177 171 176 179 179 177 174 172 168 164 155 145 136 136 140 
144 148 153 153 155 157 159 160 160 160 159 158 158 157 156 156 156 152 149 
140 133 128 119 103 85 71 61 54 50 43 36 29 24 14 14 14 15 17 19 21 23 28 28 
28 27 25 24 23 23 24 28 37 71 140 207 236 235 237 228 211 194 186 180 190 221 
230 219 215 214 207 197 183 166 163 160 140 103 77 78 112 154 163 164 167 172 
172 169 170 174 173 176 178 177 176 174 168 161 146 137 129 128 130 131 135 
140 148 152 156 158 158 157 156 155 155 156 156 156 156 156 153 149 143 134 
126 118 102 85 71 62 54 50 43 36 29 24 14 14 15 16 17 17 18 18 19 21 24 27 29 
32 34 35 38 45 60 98 161 218 241 242 238 230 214 196 185 178 190 225 235 222 
217 218 210 193 176 165 154 145 146 122 74 86 127 148 160 161 162 160 159 159 
160 160 164 168 172 174 176 175 168 160 147 141 137 137 136 133 135 140 141 
146 153 157 158 158 157 157 155 157 158 158 158 157 153 150 145 134 125 117 
101 84 70 62 54 50 43 36 29 24 14 14 15 16 17 17 18 18 17 19 19 18 21 22 22 24 
28 38 55 97 164 218 239 242 241 230 215 197 180 177 198 224 229 226 212 204 
199 188 173 158 147 138 132 116 92 95 117 129 146 156 161 161 164 167 166 164 
166 165 167 170 171 172 166 155 144 143 143 145 146 146 145 146 147 150 153 
156 158 157 156 156 157 158 157 155 154 154 154 152 147 137 127 116 102 87 72 
61 54 47 42 36 28 23 13 13 14 16 17 18 19 20 20 21 19 18 20 21 22 25 31 36 60 
113 180 227 241 240 242 235 224 207 186 175 185 201 212 217 209 198 184 170 
162 154 141 132 122 104 82 85 109 126 128 140 147 147 150 153 155 157 163 165 
169 172 171 168 158 145 140 140 140 141 140 140 141 144 146 148 151 153 153 
153 153 153 156 157 157 155 154 154 153 152 148 140 131 120 105 88 73 60 57 50 
43 37 28 23 15 15 16 17 17 18 19 19 14 17 17 19 23 26 28 33 43 60 106 167 215 
238 243 242 240 234 222 206 187 173 171 175 207 216 214 205 190 177 170 161 
145 129 110 90 73 75 95 113 121 132 138 135 134 137 143 149 149 150 154 157 
159 161 159 151 137 135 132 130 128 129 134 140 143 146 149 153 155 155 156 
156 155 156 157 155 155 154 153 151 149 143 136 127 112 96 78 64 57 48 41 36 
28 23 12 12 13 14 15 16 17 17 21 24 25 27 30 30 32 37 47 78 142 203 232 238 
239 238 230 224 213 201 190 180 170 164 170 198 218 217 197 180 175 169 144 
124 101 87 79 77 82 90 115 127 134 133 133 137 143 149 155 157 161 160 156 152 
144 133 140 137 135 133 131 131 135 139 144 147 151 153 154 154 153 152 154 
156 157 156 155 155 153 151 150 144 139 132 121 108 90 72 59 48 41 36 29 24 14 
14 16 18 20 22 23 24 28 29 27 25 24 22 23 29 47 81 143 199 228 238 240 237 231 
227 218 206 194 180 164 152 145 173 202 218 215 207 196 177 146 129 112 104 
99 92 87 86 93 105 114 119 126 132 138 143 145 148 154 155 152 150 146 138 129 
129 131 133 134 132 131 130 137 140 143 147 149 151 152 153 154 156 156 156 
155 155 154 152 150 145 140 135 129 120 102 82 66 53 43 37 30 24 18 19 20 20 
22 22 23 24 19 19 17 16 17 19 25 35 56 96 154 202 229 241 242 238 234 230 220 
203 185 171 159 152 158 164 175 196 218 233 228 202 168 153 137 124 109 100 
100 102 93 98 100 102 109 118 125 132 140 142 145 143 138 139 139 135 134 133 
134 137 140 141 142 143 139 140 142 144 147 150 154 157 154 155 156 155 154 
155 154 152 151 146 141 136 132 127 112 93 72 56 43 36 29 23 15 15 15 15 15 16 
16 16 16 17 18 19 23 26 35 47 66 115 175 215 234 238 237 236 229 222 208 192 
179 171 167 166 157 159 161 164 175 202 226 223 197 182 166 143 115 105 111 
114 115 117 114 111 115 120 124 129 128 134 142 143 140 139 138 133 135 133 
132 134 136 139 144 148 153 152 152 150 150 149 150 151 153 154 154 153 153 
154 153 152 150 147 143 137 135 133 122 105 83 63 45 36 28 23 13 14 15 16 18 
19 20 21 24 25 25 26 25 24 28 37 73 125 183 222 239 240 236 238 236 224 208 
193 183 174 166 161 155 158 155 147 145 174 213 222 220 206 193 169 136 123 
126 124 120 125 128 130 133 131 127 127 127 131 137 137 134 136 139 138 131 
133 136 139 140 140 142 146 149 150 153 154 154 153 153 152 153 153 153 152 
152 153 153 152 149 148 145 139 136 137 129 115 99 76 53 39 28 22 16 18 20 21 
20 19 18 18 20 15 16 16 20 30 47 68 111 165 210 233 241 241 238 231 225 217 
209 200 189 180 175 170 171 162 154 149 146 155 184 213 222 226 214 190 164 
141 131 136 135 132 131 133 136 136 135 135 135 133 131 135 140 136 131 131 
140 134 133 139 142 140 140 143 147 148 150 151 151 151 151 151 150 151 152 
153 153 152 150 149 148 146 143 140 139 138 132 127 112 89 64 45 32 27 13 14 
15 16 18 19 20 20 18 21 24 25 36 58 82 106 162 202 230 238 238 235 233 229 225 
219 213 205 194 186 182 178 168 162 155 150 145 145 158 174 197 219 233 219 
185 152 142 149 147 141 139 138 135 134 135 134 132 131 129 132 135 132 129 
131 133 138 141 140 140 141 144 144 147 148 150 150 151 151 151 152 151 151 
151 151 151 150 149 149 149 146 143 140 140 138 133 128 117 98 75 55 37 29 11 
11 12 13 15 17 18 18 18 20 29 38 45 53 89 144 184 214 231 236 236 233 232 230 
228 224 218 207 195 188 183 176 165 161 156 152 147 142 141 142 153 190 232 
237 200 163 153 160 158 149 145 140 131 128 130 128 127 125 122 122 125 125 
125 130 129 136 141 142 142 145 148 148 148 149 150 150 150 150 150 150 152 
151 150 149 149 148 148 148 148 146 143 140 140 138 134 130 122 107 88 65 41 
27 11 12 13 13 13 13 13 14 15 26 31 26 31 50 94 152 191 216 230 236 238 235 
232 230 228 225 217 206 194 188 180 170 165 161 157 153 150 146 140 135 132 
160 203 223 205 179 167 165 161 151 145 138 127 123 123 119 122 120 117 115 
118 120 124 131 132 130 132 139 143 143 142 144 148 149 150 151 150 149 148 
148 150 150 149 149 148 148 148 147 147 145 142 140 139 138 135 131 125 113 
97 75 48 32 12 13 13 13 11 11 14 16 24 25 20 17 35 63 102 149 188 211 225 233 
238 234 232 229 223 218 211 202 193 189 180 169 166 163 157 152 149 147 142 
136 137 141 160 180 183 175 165 155 155 146 139 133 124 120 117 113 117 118 
118 118 120 122 125 131 139 135 135 140 143 142 140 140 145 147 149 150 150 
149 147 147 148 148 148 148 148 147 147 147 145 144 142 139 138 137 134 130 
125 116 104 84 58 41 11 11 11 11 11 14 19 22 25 16 16 28 48 65 92 132 166 196 
217 231 237 234 230 226 219 213 206 199 192 187 179 169 166 164 159 154 151 
150 146 141 140 135 136 141 142 140 139 138 140 134 127 123 121 117 112 110 
112 117 120 123 126 126 125 128 133 138 141 139 139 143 144 141 141 143 146 
148 149 148 148 147 146 146 146 146 146 146 145 145 144 143 141 139 138 137 
133 130 126 118 107 88 62 44 11 10 10 13 16 19 21 22 14 18 26 30 39 57 85 117 
164 198 222 234 238 233 227 220 218 212 207 201 192 186 179 172 170 168 164 
160 158 156 152 149 143 143 139 133 127 122 122 127 124 125 118 115 118 114 
109 112 114 119 123 126 129 128 127 128 124 133 138 136 135 139 141 140 140 
141 143 145 145 146 146 147 145 144 143 143 142 142 143 143 142 142 141 140 
138 137 133 129 126 120 110 91 64 45 11 10 12 16 21 23 20 16 22 12 19 28 32 44 
84 135 173 205 225 231 232 228 227 223 219 214 210 205 196 188 184 181 177 174 
169 165 162 159 155 153 147 147 141 137 137 129 118 114 117 121 115 112 118 
115 110 118 120 124 125 126 130 131 130 132 134 136 141 144 144 141 141 142 
141 142 142 142 142 143 144 145 144 143 141 140 139 139 140 141 142 142 142 
140 139 137 133 129 126 121 114 96 70 52 9 12 18 22 18 12 12 17 12 20 26 21 27 
55 95 134 177 208 227 230 228 226 227 223 223 221 215 206 198 193 187 183 177 
172 170 168 165 163 160 155 153 151 146 140 136 133 128 123 120 125 123 119 
119 120 122 125 129 127 125 127 131 132 133 139 140 141 142 142 142 142 140 
137 138 139 140 141 142 142 143 143 142 142 141 141 140 140 139 139 140 139 
138 137 136 133 131 129 125 123 115 105 86 67 12 15 16 14 14 16 14 10 18 25 29 
24 37 73 115 151 187 213 227 230 228 226 228 225 227 225 219 210 203 196 190 
184 180 175 173 170 166 164 162 159 155 153 149 144 141 139 134 129 128 131 
129 125 124 126 131 136 136 137 134 129 125 122 125 132 138 140 141 142 142 
141 139 137 139 138 138 138 139 139 139 138 141 141 140 140 140 140 139 139 
139 138 137 136 134 132 129 128 125 123 114 106 89 73 13 14 12 9 10 14 14 11 
27 22 26 37 56 83 118 156 190 209 219 224 226 227 232 231 233 230 225 218 212 
205 197 191 183 178 175 171 166 164 164 161 156 155 152 149 147 144 139 134 
129 131 133 132 128 124 124 126 132 138 143 144 141 136 128 123 133 136 140 
142 144 145 145 143 143 142 141 140 140 140 139 138 139 139 139 139 139 139 
139 139 139 139 137 136 135 133 130 128 125 123 115 107 92 76 10 9 10 12 10 9 
14 21 28 21 22 28 38 62 108 160 188 202 210 219 227 232 237 238 236 233 229 
224 219 213 204 198 187 181 176 173 168 167 164 160 157 156 153 151 150 146 
141 136 132 132 136 139 136 129 124 121 113 119 127 135 142 150 152 149 144 
147 150 150 149 148 146 145 141 139 138 138 138 138 137 136 137 137 137 138 
138 138 138 138 139 138 137 136 135 133 130 128 123 123 116 111 97 81 7 8 11 
13 11 10 16 24 17 16 18 21 43 82 122 155 179 193 202 216 229 235 239 238 234 
231 227 224 220 213 205 199 190 183 179 177 175 173 169 162 159 157 155 153 
150 146 140 136 133 129 133 141 142 140 138 133 126 131 135 130 123 126 131 
130 135 140 144 145 145 144 143 142 138 137 137 138 139 138 137 136 135 135 
136 136 136 136 136 136 136 135 134 133 132 130 128 126 121 121 116 113 102 
89 7 10 11 10 12 17 18 16 13 15 28 45 73 98 113 127 147 167 187 207 225 232 
235 233 230 227 223 220 215 208 201 197 194 188 185 184 182 180 175 168 162 
159 156 154 152 146 140 137 131 128 135 144 147 150 149 142 132 136 145 144 
135 131 128 119 116 123 130 134 136 138 140 141 138 138 138 138 138 138 137 
137 133 134 134 134 134 134 134 133 134 133 133 132 131 130 128 126 123 121 
114 111 102 91 9 10 9 9 12 17 16 11 17 23 38 48 51 51 63 87 104 136 169 198 
217 226 231 229 229 226 223 219 215 208 202 200 199 195 192 190 185 181 176 
171 163 160 157 156 153 148 142 140 138 136 144 151 151 155 155 146 148 148 
157 160 154 151 146 135 126 132 138 140 139 138 138 138 136 136 135 133 130 
130 130 132 132 133 133 133 133 132 131 131 132 132 132 132 131 130 128 126 
123 120 112 108 99 88 10 7 7 11 13 12 11 13 14 17 22 23 24 29 38 54 80 121 163 
195 215 224 230 229 231 228 225 222 217 211 207 206 203 200 197 192 183 177 
174 170 163 159 157 156 154 149 144 142 145 142 145 147 143 150 156 150 156 
160 173 176 164 157 154 145 132 138 144 144 142 140 140 139 140 139 137 132 
128 127 128 131 132 132 132 132 132 131 130 129 130 130 130 129 129 128 126 
125 121 118 111 109 100 88 8 8 8 9 10 10 11 11 9 14 21 17 16 23 36 56 90 123 
162 189 208 220 229 235 233 229 224 219 215 211 208 206 201 198 193 188 182 
177 172 170 169 166 165 158 153 152 149 151 153 150 140 139 143 146 151 148 
150 139 138 137 126 124 134 141 145 140 141 145 143 139 136 133 133 133 136 
138 135 131 130 132 132 132 132 132 133 133 133 134 132 131 129 128 127 126 
124 123 119 116 112 106 98 92 7 8 8 9 9 10 11 11 12 15 19 16 19 29 44 63 87 113 
146 175 202 222 231 236 234 230 225 220 215 210 206 203 198 195 190 185 179 
174 169 166 173 171 172 163 155 150 144 145 151 153 152 156 157 152 148 140 
136 122 110 100 94 110 136 149 143 134 130 130 128 127 128 127 130 130 132 134 
132 129 128 130 130 130 131 131 132 132 132 132 132 131 129 127 125 123 121 
119 116 114 111 107 101 96 7 7 8 8 9 10 10 10 12 12 16 15 22 34 47 64 80 108 
144 178 208 227 233 233 233 231 227 222 218 212 205 201 196 193 188 182 176 
171 166 162 167 166 169 162 153 149 145 148 165 167 166 169 166 158 153 146 
138 130 120 108 103 119 138 143 135 130 130 133 133 132 132 130 131 130 130 
130 127 123 122 124 127 128 129 130 131 131 130 130 130 129 127 125 123 121 
118 116 114 112 110 107 103 99 6 7 7 8 9 9 10 10 10 10 14 17 25 36 44 57 78 112 
155 191 218 231 233 232 231 230 228 225 221 215 207 202 195 193 188 182 176 
170 164 161 158 158 161 155 149 149 151 160 164 163 157 155 149 142 142 140 
139 133 123 109 102 111 121 121 125 126 132 138 138 135 134 131 132 129 128 
127 124 119 119 121 124 125 127 129 130 130 129 129 127 126 124 123 122 120 
118 117 113 111 108 106 102 99 
