P2
16 8
255
190
220
220
233
228
226
204
91
122
214
222
123
53
121
206
199
201
224
221
234
230
232
220
127
118
172
155
180
174
149
224
200
214
228
224
236
234
238
240
178
207
179
130
94
125
136
191
201
223
231
227
237
237
241
251
219
198
135
122
100
135
99
114
167
225
231
231
238
238
241
250
240
184
166
111
89
114
69
138
160
223
231
235
237
238
241
244
246
189
187
143
69
84
110
151
135
221
232
238
234
237
242
240
247
238
168
153
105
113
149
142
162
220
233
240
232
237
244
239
248
242
231
201
187
175
183
170
110
