P2
16 32
255
189
170
176
130
108
121
97
109
114
88
101
103
135
133
129
121
134
97
101
95
92
103
103
125
121
144
144
118
116
116
125
122
124
93
91
98
89
100
130
151
179
217
159
141
153
130
129
170
98
90
93
109
114
134
159
141
180
214
190
192
132
103
123
120
97
88
92
123
143
150
140
100
97
190
133
100
110
133
132
115
120
107
113
133
137
119
112
130
172
245
169
103
123
131
112
110
116
116
134
137
145
137
132
194
214
205
231
193
106
95
135
107
147
155
175
169
205
211
161
189
225
214
152
60
78
87
79
79
104
142
118
117
172
226
237
223
130
93
44
48
61
86
53
48
154
103
115
104
135
190
247
147
52
37
56
58
75
55
57
56
90
142
141
117
183
125
71
34
50
33
53
55
66
55
63
39
111
157
151
155
151
99
64
79
53
66
76
95
60
75
79
55
128
146
165
180
144
110
93
60
52
66
94
156
128
110
93
62
220
255
223
135
146
96
89
79
85
83
134
199
185
87
85
79
237
251
241
156
116
66
91
71
93
113
157
207
181
80
114
157
231
238
232
214
144
89
84
81
97
98
77
164
201
196
198
201
196
173
145
126
115
101
87
78
108
85
66
111
187
125
141
147
210
224
132
88
161
146
67
71
41
69
91
120
156
91
130
164
217
255
239
169
134
114
105
122
93
125
152
180
212
144
133
116
131
104
121
115
84
125
159
113
95
122
141
158
190
161
163
148
114
111
111
104
95
107
127
133
112
127
136
139
155
144
148
137
133
133
118
121
144
140
139
166
148
154
166
170
168
152
145
137
158
147
153
165
162
157
164
172
142
131
127
104
59
34
42
68
171
165
165
176
185
180
171
168
147
97
79
96
103
102
85
82
143
144
134
119
129
130
116
131
126
86
78
76
72
73
65
68
100
131
123
134
106
133
229
198
175
82
63
92
89
64
48
63
103
122
127
117
124
170
204
190
186
118
107
97
59
45
37
24
163
130
107
85
117
164
168
181
255
103
41
50
38
38
52
60
118
115
107
147
137
141
197
150
228
99
66
90
79
69
65
59
111
129
113
109
111
127
160
150
126
75
72
60
32
45
56
47
103
128
120
92
127
125
73
106
87
23
28
67
83
79
58
50
112
121
89
115
121
81
99
114
84
46
24
6
18
51
43
24
