P2
64 128
255
180
177
173
167
160
150
140
134
120
102
81
65
48
29
16
13
14
9
6
8
7
5
5
8
8
8
8
8
8
8
8
7
10
12
10
12
20
31
64
107
110
89
75
66
57
59
64
60
37
22
9
6
10
12
12
13
11
15
15
14
20
27
25
17
176
173
169
165
160
152
144
138
129
114
95
79
61
39
23
16
16
11
8
10
9
7
7
9
9
8
8
8
8
8
8
8
10
13
12
16
30
45
72
106
112
84
67
69
74
80
76
61
46
30
13
8
9
11
11
13
14
13
12
16
24
28
22
13
168
166
164
162
159
155
149
145
142
130
114
99
80
56
35
24
20
14
11
12
12
9
8
10
9
9
9
9
9
9
9
9
10
15
13
20
43
64
83
105
105
79
69
79
88
93
86
69
53
35
17
10
11
12
13
14
16
11
11
20
28
26
17
10
160
158
157
156
156
155
152
150
149
142
131
118
100
75
50
35
26
18
13
13
13
10
9
10
10
10
10
10
11
11
11
11
11
16
14
24
52
76
91
104
94
79
81
92
92
89
85
77
49
32
16
12
13
14
14
16
15
12
16
26
28
20
12
10
150
149
148
149
152
154
154
153
153
150
143
132
116
93
67
49
34
23
15
13
13
10
9
9
10
10
11
11
12
12
13
13
12
18
19
32
58
78
90
105
100
82
83
95
95
89
83
74
41
26
13
10
13
14
14
14
13
18
26
29
23
13
10
14
137
136
137
141
147
153
156
157
156
157
152
142
128
108
83
64
45
31
18
14
13
11
10
10
11
11
12
12
13
14
14
15
14
22
32
48
66
73
85
107
121
88
76
91
101
99
86
70
48
32
17
13
14
13
12
12
13
27
35
28
16
10
13
16
123
124
126
133
143
152
159
163
163
165
161
150
137
120
96
77
56
40
23
16
14
13
12
13
11
12
12
13
14
15
16
16
16
29
48
70
78
68
78
109
135
97
80
94
105
105
96
83
78
58
36
24
20
17
15
15
17
34
39
23
11
13
17
15
114
115
119
128
140
153
162
167
170
171
167
155
142
127
104
84
63
45
26
18
16
14
14
15
12
12
13
14
15
16
16
17
17
33
61
87
87
65
73
111
135
104
93
102
103
101
104
104
107
83
55
36
27
22
20
21
21
39
39
18
8
18
21
12
118
116
118
129
145
161
170
173
175
176
172
164
152
136
114
95
71
54
33
20
14
14
15
17
16
14
24
13
21
11
23
22
25
55
76
79
74
69
80
103
136
123
87
86
99
95
97
93
84
94
70
49
50
30
11
24
47
35
23
18
17
15
15
18
129
128
129
139
154
167
175
178
181
182
179
170
158
143
121
103
81
63
41
27
19
16
16
18
17
16
27
17
26
17
28
27
35
61
75
73
67
64
79
105
128
125
96
92
100
94
95
90
99
93
66
43
33
16
12
33
41
30
20
17
17
15
16
18
147
145
147
154
166
177
184
186
187
188
185
176
165
149
128
110
83
65
43
28
19
14
15
19
23
22
34
25
36
29
41
42
48
67
74
67
61
59
72
96
120
132
111
101
101
95
98
91
93
79
60
43
29
22
34
53
33
24
17
17
18
16
16
18
165
163
164
169
177
186
191
193
191
192
188
179
167
152
131
114
83
63
42
30
22
16
20
28
37
36
47
39
52
48
64
67
66
75
71
60
57
54
61
77
110
133
118
103
97
91
97
91
80
71
62
49
38
46
57
54
28
20
15
17
19
18
17
18
178
178
178
181
186
191
195
197
196
196
191
181
169
154
133
116
90
69
48
38
31
27
36
49
62
61
71
63
78
76
95
100
95
90
70
52
50
50
55
69
101
127
115
99
90
85
94
92
82
80
70
49
44
61
59
33
29
21
16
19
21
19
18
19
187
187
188
189
191
194
197
199
199
199
193
182
169
154
133
116
94
71
51
44
40
40
55
74
96
95
106
98
112
109
127
130
127
116
87
62
56
57
66
82
104
126
114
103
97
89
99
102
87
89
72
50
55
71
59
31
35
27
21
22
23
21
19
20
193
193
194
194
194
196
198
200
199
198
191
179
165
149
128
111
92
70
52
50
52
59
81
107
129
130
144
137
149
140
151
151
148
148
128
104
90
83
89
107
106
122
111
109
107
96
104
108
91
96
80
71
86
85
62
52
44
34
27
25
25
22
20
20
196
196
197
197
196
197
199
201
196
194
187
174
160
144
123
105
91
70
56
59
67
80
109
139
150
153
169
163
172
159
165
161
155
170
167
148
127
109
109
125
101
112
102
108
109
94
100
105
102
108
96
100
118
94
61
66
50
39
30
28
26
22
20
21
193
196
199
199
196
194
194
196
195
189
182
173
154
129
109
100
80
66
57
66
84
106
136
161
167
173
178
177
175
173
166
159
170
165
167
169
153
129
125
137
115
121
112
122
114
105
119
101
110
104
114
134
98
105
98
82
57
48
37
31
29
26
20
15
195
196
196
194
192
189
187
186
186
181
175
166
152
136
128
128
100
93
89
96
111
129
148
162
174
181
185
184
182
181
175
169
174
172
175
177
165
145
137
141
125
136
134
144
138
132
141
119
110
111
119
125
106
115
119
110
75
63
45
28
21
24
33
40
193
190
187
186
186
184
179
175
176
166
156
152
146
135
125
120
108
109
109
111
123
143
161
170
175
182
187
186
184
183
180
176
176
180
184
183
177
164
151
143
128
141
146
151
148
150
157
134
114
121
124
106
106
111
122
117
98
80
55
38
34
40
48
52
187
180
175
175
178
177
171
165
154
140
130
132
135
125
106
92
93
100
101
96
105
133
161
174
172
180
186
186
184
184
182
179
174
182
186
185
183
177
160
142
125
136
144
144
142
154
160
141
128
139
137
100
106
99
106
97
101
82
62
57
62
61
47
31
182
173
165
163
166
164
157
149
128
123
120
120
116
105
95
91
74
86
90
84
88
114
144
162
166
177
185
185
183
183
183
181
174
182
185
184
186
186
169
148
125
133
150
151
149
161
158
143
145
155
153
114
117
104
102
87
89
84
80
79
76
61
36
15
178
168
158
152
150
145
136
128
125
127
127
115
95
81
86
99
69
79
87
88
91
106
125
139
152
164
175
177
175
175
175
173
174
179
182
184
190
193
182
166
131
135
162
168
166
170
156
144
153
155
154
135
131
124
118
98
95
104
110
102
81
56
37
29
169
160
149
141
135
128
120
113
127
123
116
105
89
76
76
83
67
68
75
88
100
110
119
127
137
151
165
168
166
166
165
164
173
173
176
183
193
197
194
188
153
145
173
180
176
176
159
157
163
152
149
153
138
147
141
122
122
127
126
112
88
63
48
42
159
152
142
133
126
120
112
107
117
100
86
89
96
91
75
61
64
54
57
79
102
115
122
128
133
149
164
168
166
165
164
162
169
167
170
181
192
199
201
202
180
159
181
184
179
180
167
177
178
157
150
169
144
163
160
141
143
133
120
107
94
75
52
35
141
123
115
113
107
109
116
115
93
77
84
92
79
76
82
73
77
85
103
103
98
120
133
112
136
153
156
176
166
177
158
153
163
165
166
171
186
202
206
201
200
195
191
191
195
196
193
189
187
180
169
166
172
178
173
162
153
145
125
105
95
86
59
30
124
121
120
109
98
106
113
105
103
81
79
85
79
80
81
69
79
87
106
111
106
122
133
118
147
163
166
182
173
184
171
169
165
167
167
169
182
200
211
212
211
207
203
203
206
206
203
199
193
187
177
171
172
176
178
177
163
155
147
141
128
101
68
46
90
104
117
108
95
100
101
84
92
77
76
79
76
81
89
86
88
93
110
121
122
132
140
131
156
170
176
187
182
192
186
186
177
177
175
172
179
195
211
220
222
219
216
216
217
216
212
208
201
197
188
176
166
166
175
186
176
169
173
182
173
141
110
98
62
80
106
113
103
98
88
69
67
69
74
74
70
75
91
102
105
104
112
127
138
146
146
140
155
169
179
188
188
196
196
197
194
194
190
183
181
190
206
218
225
223
222
221
221
219
214
210
206
202
195
179
159
149
162
181
184
181
185
195
195
177
156
145
56
60
85
108
104
90
79
69
62
68
70
70
76
84
95
105
121
115
113
126
148
155
144
135
148
160
177
183
193
198
203
201
204
205
202
195
188
190
203
216
223
223
223
224
222
219
214
210
205
199
192
179
156
139
150
172
182
186
187
189
194
195
182
165
60
50
66
88
84
70
66
67
72
74
66
71
96
113
115
119
120
121
115
125
153
160
141
126
140
149
168
174
194
199
208
203
206
207
207
202
195
193
203
216
222
224
226
227
225
220
216
212
203
190
181
174
156
138
145
166
173
181
182
179
186
198
195
182
65
62
74
82
70
59
60
59
77
84
74
71
95
111
116
127
98
116
119
128
160
170
148
132
133
136
155
159
189
195
209
202
207
206
206
204
197
194
203
216
221
224
228
229
227
222
218
215
205
182
167
164
152
135
139
157
165
164
157
147
143
151
164
173
72
83
99
96
76
66
64
55
77
96
87
68
70
75
86
111
76
109
123
134
168
181
161
146
128
127
144
146
182
190
208
201
209
206
204
202
196
192
201
214
219
223
227
229
227
223
218
215
209
179
157
155
147
130
131
146
162
145
124
103
82
77
102
133
101
118
103
87
80
84
91
72
85
86
105
90
81
47
62
76
77
85
110
139
167
190
189
166
156
140
123
135
168
186
193
204
208
199
201
191
173
188
211
210
219
226
231
230
228
226
222
216
204
188
155
150
148
141
146
136
128
80
51
15
28
17
42
93
90
89
67
61
59
61
77
73
81
86
105
95
90
60
62
61
90
84
100
134
158
174
186
190
180
164
131
122
153
182
186
181
184
178
181
173
159
178
208
214
218
226
232
232
230
229
226
221
211
196
164
157
159
154
148
120
71
16
15
9
22
22
30
30
77
65
43
50
55
53
70
75
65
73
88
81
86
75
73
64
84
86
99
118
135
151
168
181
182
180
145
111
121
148
155
148
162
159
160
151
141
161
195
211
216
224
231
232
231
231
228
224
217
204
174
166
169
167
142
83
31
2
39
43
31
38
49
29
64
60
49
65
73
67
76
74
111
114
108
87
81
82
82
72
62
96
110
104
111
131
138
135
151
172
159
118
97
100
111
122
140
142
142
135
130
150
185
210
214
222
229
230
230
230
228
223
223
214
189
181
182
179
134
43
18
50
114
98
45
34
46
48
49
60
58
72
78
72
77
68
96
101
87
65
55
69
76
74
66
106
121
112
114
119
116
115
128
154
162
140
109
85
90
114
121
129
131
129
131
147
177
207
214
223
230
231
231
231
229
224
228
223
206
198
193
188
131
19
46
114
161
123
64
41
30
48
41
56
57
66
64
59
70
67
78
90
84
81
74
99
108
115
97
117
126
135
140
120
112
137
130
141
150
152
136
104
97
119
124
136
138
136
140
143
158
184
212
221
229
231
232
233
231
228
225
221
212
206
195
190
136
19
88
130
129
83
50
56
41
59
49
59
62
75
66
49
69
85
87
95
85
88
76
93
91
96
114
128
133
147
159
132
120
152
130
129
130
137
135
114
108
127
133
149
151
153
158
148
147
168
204
213
222
226
229
233
232
229
223
219
215
212
197
196
155
46
95
103
87
48
14
52
57
67
63
67
74
97
83
53
76
106
99
101
87
96
84
101
95
102
109
137
141
146
161
144
126
143
119
119
115
114
113
104
109
131
128
148
155
164
175
164
156
175
194
204
215
220
225
230
231
228
230
224
224
222
205
209
179
79
95
100
112
84
19
55
72
70
58
79
85
108
89
82
74
105
103
104
74
81
110
112
111
110
123
159
169
145
135
142
120
79
61
63
63
57
48
53
82
111
118
154
163
178
183
179
183
155
181
207
209
219
225
218
226
229
217
226
225
217
219
215
180
137
83
96
111
109
85
63
70
90
74
99
96
95
77
86
90
114
86
105
97
108
122
112
117
126
147
145
143
137
118
87
53
32
13
7
4
4
4
7
21
38
102
139
156
173
176
174
191
183
161
183
184
200
216
217
229
232
220
225
222
215
218
223
212
192
135
107
99
118
117
94
89
107
46
74
67
52
47
77
94
111
95
112
108
118
125
119
139
158
160
140
124
109
73
25
0
0
0
0
0
0
3
8
10
11
34
87
137
177
182
174
188
193
163
176
172
191
214
218
227
227
227
227
222
214
211
214
216
215
168
133
123
154
181
182
185
198
76
93
83
67
71
95
105
112
101
109
103
117
128
130
152
162
148
138
108
60
18
1
7
17
7
25
28
10
1
6
3
0
0
25
79
141
178
185
188
189
183
186
170
187
213
217
224
222
229
227
225
222
215
207
207
210
230
218
203
196
197
200
199
195
66
66
62
63
83
87
84
85
85
101
109
127
134
136
149
139
127
107
62
14
0
20
54
73
87
121
119
70
33
33
29
11
12
0
14
60
119
162
182
194
201
192
164
176
201
210
223
227
228
225
227
232
231
223
220
222
217
222
222
218
219
227
234
235
80
68
67
77
105
92
83
82
86
110
123
130
126
134
151
133
103
54
8
2
25
56
91
119
122
146
135
78
38
36
37
24
17
3
8
15
41
87
132
177
196
186
157
168
194
203
221
231
233
230
229
233
234
233
232
233
234
222
220
233
239
235
236
245
106
89
84
80
103
83
78
77
99
118
121
118
116
137
151
114
65
19
0
30
69
87
108
133
132
121
95
63
48
51
56
55
21
13
24
14
19
48
70
105
135
141
137
169
202
208
222
229
234
236
235
230
228
228
229
228
221
209
204
214
224
227
230
237
85
75
76
70
104
101
115
122
92
105
107
110
120
145
137
69
29
14
24
64
96
104
114
130
139
95
55
49
59
64
68
75
61
24
13
12
44
73
44
29
50
78
108
168
214
220
228
231
226
236
240
233
227
228
227
224
217
224
218
203
205
224
234
229
79
91
97
97
103
111
104
89
110
108
97
93
117
135
101
48
26
9
68
108
112
125
126
132
132
104
70
27
83
75
92
102
69
51
44
56
66
57
41
32
34
38
94
176
218
223
226
231
234
240
233
226
229
226
221
225
214
223
213
206
198
199
221
229
121
121
117
112
111
114
115
114
130
118
114
126
134
113
72
38
38
45
106
131
125
136
126
111
124
121
93
38
93
106
117
99
93
77
83
108
107
73
51
53
48
44
89
166
213
225
229
231
221
227
226
224
226
222
217
219
215
214
212
200
188
186
202
227
118
115
111
108
107
111
118
124
128
129
135
137
124
110
118
136
81
46
75
123
139
139
127
124
128
129
122
85
109
97
118
133
95
127
155
151
129
107
92
81
80
73
109
175
218
230
228
222
217
220
223
224
223
219
216
215
213
199
207
191
178
174
177
227
147
140
122
103
100
112
122
123
125
140
145
131
120
131
157
176
136
82
70
100
120
128
139
152
135
135
137
118
126
104
126
156
173
188
183
154
137
142
148
143
126
128
162
209
231
231
223
213
215
209
210
212
208
207
209
208
209
184
198
183
175
165
155
223
127
137
133
120
122
133
125
104
124
110
93
94
122
157
174
174
180
181
156
114
90
104
122
115
134
144
148
135
163
181
187
171
168
137
131
162
183
177
174
184
177
187
216
238
235
227
223
215
208
190
189
194
189
193
202
199
203
176
185
174
170
151
134
209
136
135
119
96
96
112
117
107
83
72
82
121
160
176
177
176
164
190
187
179
177
185
198
186
184
180
175
158
147
130
115
98
106
108
131
169
188
185
184
193
216
224
241
243
229
225
228
223
205
177
177
188
185
192
202
193
187
170
168
158
154
124
114
190
123
132
143
144
125
93
62
46
61
97
151
193
202
181
154
138
159
161
148
169
179
155
145
132
117
109
117
123
98
76
88
113
145
169
178
164
161
184
210
219
236
237
242
238
228
231
230
216
191
158
161
179
176
180
182
162
157
159
145
136
128
90
100
180
136
115
101
94
75
55
67
97
101
141
169
169
170
180
172
150
139
158
137
133
134
120
120
103
94
98
98
89
77
101
129
140
139
144
156
175
199
219
229
232
241
237
237
235
235
240
229
202
165
130
135
158
153
151
144
114
130
147
126
119
108
67
95
179
118
106
97
86
61
46
71
112
136
162
177
165
148
144
147
146
135
116
126
92
106
90
113
96
109
89
79
96
108
99
113
152
152
153
162
181
203
223
236
244
235
236
238
239
239
238
236
235
225
204
152
114
110
95
69
60
110
121
108
97
95
84
112
178
98
73
53
53
63
83
117
149
144
149
146
136
132
132
121
106
124
80
83
76
103
78
90
77
121
141
129
95
88
104
118
124
165
175
194
218
236
242
238
234
236
236
237
237
238
239
240
240
225
233
215
173
132
105
98
108
117
118
102
86
83
86
123
180
73
56
45
57
83
106
119
124
130
126
117
112
117
120
108
91
116
82
87
76
90
70
93
95
79
99
98
88
104
132
148
153
148
167
195
220
236
239
233
227
232
231
230
229
230
233
236
237
230
236
240
221
182
151
131
113
115
108
94
79
74
91
131
169
75
60
42
40
60
88
105
109
99
103
107
109
112
115
117
116
77
77
93
76
83
84
106
94
84
97
98
100
112
121
125
134
165
185
209
221
224
226
228
229
234
233
232
232
232
233
235
236
238
222
223
224
208
192
161
117
105
97
90
80
76
99
132
146
50
42
33
40
66
94
104
99
86
93
102
110
111
111
115
121
114
111
120
111
117
111
98
61
49
75
82
78
91
113
126
133
151
182
214
227
227
230
239
245
238
239
239
239
238
236
234
233
236
218
215
212
198
195
184
154
104
95
88
80
80
103
127
132
43
42
50
75
107
121
105
83
100
92
91
99
102
95
89
88
106
88
87
87
80
66
64
56
117
90
68
79
99
95
91
106
138
176
217
233
233
233
234
233
223
224
225
224
223
219
216
214
214
209
208
206
199
192
175
152
113
103
84
72
80
99
117
128
67
66
75
96
115
120
111
102
107
92
82
85
83
71
61
60
62
54
58
64
62
77
108
129
140
87
66
105
129
104
101
139
192
217
238
240
232
224
214
203
207
207
206
205
204
202
200
200
198
201
194
190
192
176
146
126
115
106
77
64
79
89
98
120
33
57
96
127
132
118
107
106
100
88
81
79
68
51
49
59
53
56
57
57
67
105
120
108
53
63
80
98
100
89
113
161
207
217
220
215
215
220
219
210
210
209
206
204
204
204
205
206
200
209
191
167
159
143
127
133
108
103
72
60
80
80
79
107
38
76
113
123
123
125
121
113
89
90
83
70
66
76
89
96
81
91
101
107
110
106
92
78
68
77
84
91
96
98
122
160
200
206
210
211
214
218
217
214
218
211
216
222
219
217
212
197
196
180
164
155
146
132
121
117
95
88
62
52
68
69
67
84
50
74
99
108
111
111
107
100
101
107
109
107
110
119
127
129
123
114
107
107
106
88
55
28
22
64
93
97
107
127
153
176
197
207
216
218
219
220
218
214
213
204
202
200
189
184
179
166
160
159
154
147
142
133
117
103
94
77
51
46
54
41
36
57
41
63
94
121
133
129
117
108
104
107
109
110
114
120
120
118
108
90
77
78
78
67
53
45
74
88
87
84
105
132
150
161
187
200
211
212
206
200
194
189
179
173
176
176
167
165
164
156
149
150
143
132
128
126
110
91
60
39
22
30
37
21
19
44
52
71
104
135
147
140
130
125
132
127
119
116
118
120
119
115
99
95
97
94
73
45
37
46
80
80
86
110
135
132
125
133
159
174
188
188
182
176
171
167
161
159
166
168
160
158
160
154
148
142
131
122
115
102
77
55
16
4
0
13
21
17
24
42
79
91
109
123
123
118
121
129
143
133
123
118
118
117
113
109
98
89
79
63
35
16
30
57
69
88
110
125
125
106
104
124
134
151
167
173
173
175
177
177
179
171
169
162
148
144
146
140
133
121
111
106
94
64
30
8
0
0
3
7
10
18
28
31
54
77
104
117
115
112
117
124
110
99
89
84
79
71
62
58
44
32
21
19
23
36
63
89
92
117
121
104
96
96
99
107
138
153
168
175
178
183
185
185
173
160
153
144
131
131
137
133
119
107
88
67
47
28
13
5
2
5
14
14
9
23
35
30
24
62
103
121
122
119
113
108
84
71
57
51
45
37
34
36
24
32
46
63
77
82
79
76
79
102
109
104
110
115
112
110
142
154
166
172
175
177
175
171
144
134
132
130
120
118
115
104
88
98
81
37
7
9
18
17
12
8
21
27
18
26
42
40
42
78
110
116
111
107
97
84
69
53
38
31
30
33
43
54
71
75
74
70
70
76
81
81
100
105
104
100
94
90
115
155
126
137
150
159
165
167
163
156
135
128
131
131
115
98
76
52
38
83
89
37
0
8
16
4
27
12
26
39
25
23
39
45
80
103
121
122
116
106
89
71
49
39
31
28
30
37
55
73
81
82
85
87
83
81
88
98
113
101
84
108
88
94
150
120
105
158
141
141
149
147
152
136
122
139
105
96
75
50
50
16
18
56
119
33
11
7
15
18
20
26
34
36
29
25
32
45
92
113
128
124
111
94
73
54
44
32
25
34
50
62
69
74
81
86
92
94
90
87
95
107
112
86
90
95
99
110
139
90
140
105
108
155
137
147
95
118
99
95
81
54
52
28
37
10
6
37
98
30
18
13
17
18
22
27
34
35
29
25
34
46
99
116
127
118
98
77
55
38
34
25
22
33
51
64
72
76
84
90
98
100
95
90
96
106
100
80
88
82
90
122
108
83
127
124
80
123
114
100
84
77
85
53
63
22
36
17
28
14
1
15
61
16
18
16
20
22
27
30
35
35
29
27
36
49
100
110
113
100
78
58
41
29
27
29
31
34
39
51
70
85
90
91
96
100
96
90
89
92
88
90
81
77
79
120
72
112
80
124
96
87
109
48
76
62
83
31
53
21
31
28
24
24
17
13
35
8
19
22
29
35
34
35
37
36
31
30
40
53
110
109
99
80
58
41
30
24
27
34
41
45
50
63
81
94
92
89
90
96
98
93
86
84
89
94
77
65
100
96
55
124
85
50
126
110
96
31
36
69
76
16
38
32
29
43
24
34
38
27
34
21
32
34
39
43
41
41
42
41
36
36
45
57
120
108
87
63
44
32
25
22
30
35
44
57
74
89
94
91
90
87
89
97
101
97
91
88
89
77
70
59
117
59
66
98
126
44
130
132
45
18
47
42
76
8
25
41
33
51
35
47
44
39
41
40
45
41
41
39
48
47
48
47
44
43
51
62
112
93
68
48
38
33
30
29
42
49
59
68
82
94
95
89
88
89
94
100
100
94
92
94
83
69
62
94
91
42
104
86
116
83
149
99
26
27
69
20
88
9
21
36
40
43
51
55
47
51
49
52
49
45
46
43
54
53
53
53
51
49
56
66
93
73
50
37
36
38
40
41
60
74
83
80
76
82
92
97
87
93
101
103
96
87
89
96
78
80
60
147
50
47
143
103
69
64
194
56
63
67
40
42
101
10
21
25
42
26
57
54
58
66
59
59
51
51
59
59
57
56
57
57
55
53
59
68
75
54
35
32
38
47
58
67
79
81
85
87
89
91
93
95
99
105
109
105
95
91
95
101
85
85
111
101
95
92
129
128
36
79
163
60
77
58
79
73
126
56
3
9
30
33
37
51
70
64
66
56
60
71
59
57
67
63
63
65
62
59
63
71
41
35
32
38
46
54
66
77
89
90
89
87
86
88
94
100
104
108
109
105
99
97
102
108
98
94
127
105
96
119
129
132
75
100
152
48
55
49
78
87
124
76
30
20
29
33
28
24
38
59
83
75
73
73
59
67
68
69
73
77
74
69
73
81
29
37
51
63
70
75
86
97
82
82
79
74
72
77
89
99
107
106
103
100
99
103
109
114
115
115
144
113
101
151
134
134
101
122
157
80
78
75
92
105
100
81
54
38
44
52
42
23
32
63
88
84
93
92
71
79
65
69
75
80
80
81
87
96
43
54
68
79
82
84
90
96
66
67
66
63
63
71
87
99
103
99
94
92
96
104
112
117
126
144
146
123
114
168
148
131
112
136
163
119
114
113
119
132
112
113
106
100
104
111
102
85
78
87
86
83
117
132
102
97
79
76
74
77
85
96
108
116
61
65
71
75
77
79
79
79
65
67
69
69
72
80
93
104
99
94
89
89
96
106
115
120
133
169
138
134
133
167
165
127
128
145
155
122
118
123
135
151
137
138
141
145
145
140
133
128
129
116
100
94
134
161
130
111
112
99
84
80
92
111
126
133
81
81
81
81
85
89
88
83
74
75
76
78
82
88
96
101
98
95
92
94
102
112
121
127
142
177
135
140
154
163
172
131
138
156
160
127
125
121
134
141
130
127
131
138
135
126
127
135
140
125
121
113
132
158
136
108
131
116
97
87
95
112
123
126
76
80
83
84
89
94
92
86
80
78
77
79
85
91
94
95
97
97
99
102
109
118
127
133
154
170
144
142
172
167
169
143
143
169
179
143
146
128
139
130
128
126
126
127
125
125
135
148
135
121
135
129
126
149
136
100
118
114
105
96
96
103
107
105
45
55
64
67
71
75
73
67
83
79
75
78
86
93
96
95
96
98
102
107
112
120
129
135
165
160
155
142
181
173
162
154
151
178
188
144
152
132
153
140
130
132
127
117
114
124
139
150
143
121
142
140
128
155
145
99
98
108
112
106
100
99
98
94
58
57
57
60
67
77
88
94
82
75
77
87
89
84
86
95
102
111
114
117
123
122
127
144
176
153
155
146
189
188
160
163
155
186
169
167
150
152
149
147
149
148
144
136
128
126
129
133
130
127
135
152
160
146
123
108
99
91
87
88
86
74
59
50
56
60
67
73
77
77
76
74
75
66
65
73
78
80
90
102
105
111
112
117
129
130
134
147
176
155
156
147
188
181
154
155
150
180
168
176
164
164
158
156
150
152
154
155
153
148
141
136
109
112
126
149
163
158
144
134
120
105
89
81
76
69
62
59
61
67
74
79
79
74
66
61
63
56
56
65
73
78
88
101
104
108
108
116
132
136
138
150
167
151
152
149
188
175
151
152
162
183
167
181
172
167
157
158
166
160
155
155
159
161
159
157
157
152
151
154
155
148
139
135
134
116
95
84
78
74
73
75
78
77
77
75
73
71
70
69
64
63
67
76
82
84
89
95
98
105
107
115
128
132
137
152
151
142
145
151
190
172
155
156
172
182
161
177
170
165
158
162
169
163
156
154
156
161
165
166
173
172
169
166
160
151
143
139
125
112
98
91
89
86
85
87
93
89
84
80
79
81
84
87
84
83
84
89
91
92
94
97
95
107
113
118
125
126
135
155
138
137
140
152
190
166
156
158
161
173
154
174
172
170
164
168
157
162
167
169
167
164
162
161
160
167
174
175
168
155
139
128
118
107
97
94
93
92
94
98
101
100
99
98
97
97
98
98
99
95
90
87
87
91
97
101
102
115
122
124
126
124
133
155
132
136
136
152
186
155
151
153
155
173
157
174
170
169
160
159
164
168
172
171
167
165
168
172
177
178
173
164
156
149
140
132
132
119
105
99
98
100
106
114
107
108
109
110
108
105
102
100
101
98
94
91
92
98
105
108
113
123
126
127
129
125
131
149
127
133
131
150
181
144
146
149
157
178
156
162
154
159
155
153
173
170
165
162
162
167
174
180
179
175
165
154
153
159
161
158
143
130
116
108
105
106
113
121
112
112
112
110
108
104
101
99
100
103
105
107
111
116
118
118
120
126
125
126
130
127
128
142
121
129
126
147
177
139
144
147
153
173
145
141
135
153
161
164
160
160
161
166
171
173
169
165
174
177
174
169
166
163
151
138
136
127
117
112
108
106
109
115
125
122
118
114
112
112
113
114
116
118
120
122
125
126
127
128
128
128
129
130
128
128
136
146
131
123
121
151
155
130
131
135
131
158
132
139
148
142
169
159
155
154
154
156
160
163
166
167
175
171
167
164
160
153
143
137
126
122
118
115
115
115
114
113
133
131
128
126
125
126
128
129
127
128
129
130
132
132
133
133
131
130
131
132
130
129
136
146
128
121
119
147
149
122
122
124
125
150
127
134
143
137
158
147
151
153
153
151
148
148
152
156
162
161
160
159
157
150
141
134
128
125
120
116
115
114
112
111
148
146
143
141
140
140
141
142
142
141
141
141
140
140
139
139
137
135
135
135
133
131
137
145
126
121
119
145
144
116
114
114
120
142
122
127
136
132
145
133
146
149
149
144
138
137
143
149
150
152
155
157
157
151
142
135
129
125
120
116
114
112
110
108
162
160
156
152
149
147
147
147
153
152
151
148
146
145
144
143
142
140
139
139
136
134
138
144
127
125
124
147
145
117
114
112
121
137
119
120
128
127
134
125
138
139
138
135
133
135
140
145
143
147
153
157
156
150
142
136
124
121
117
114
112
110
108
106
171
169
165
161
158
155
154
153
160
158
155
152
149
147
145
145
147
143
141
142
140
137
139
143
127
129
128
149
146
120
117
115
121
133
118
111
117
120
124
121
129
125
121
121
125
129
130
130
133
137
143
147
145
139
132
127
115
113
111
110
110
109
107
106
175
174
171
169
166
165
164
163
163
161
157
153
150
148
147
147
149
145
143
144
142
139
139
143
129
132
132
150
146
121
120
118
118
128
118
106
109
114
115
119
119
113
108
108
113
116
113
108
119
123
127
128
125
120
116
113
109
107
106
107
108
109
107
106
180
179
177
174
172
169
168
167
165
162
159
155
152
151
151
151
150
145
143
144
144
141
140
143
135
139
137
153
147
123
123
121
114
126
124
108
108
113
111
119
113
110
107
107
108
108
104
100
110
113
115
115
111
108
107
107
107
105
105
106
108
108
107
105
185
184
180
176
172
168
165
163
166
164
160
157
155
154
154
155
150
145
143
145
145
142
141
143
142
146
143
156
149
125
126
123
113
127
131
114
111
115
111
121
110
111
112
112
110
108
106
105
109
111
112
110
107
105
107
109
107
106
106
107
108
108
107
105
191
187
183
180
179
177
176
174
164
164
164
163
160
157
154
152
148
145
145
148
145
140
143
151
147
143
143
147
147
138
129
124
123
131
132
124
116
115
114
111
112
112
112
112
111
110
109
108
109
109
108
108
107
107
107
106
108
109
110
110
109
108
106
104
194
190
185
181
179
177
174
172
167
166
166
164
161
158
155
153
151
148
148
150
147
143
146
153
148
144
143
147
146
139
130
126
124
131
133
126
119
117
115
113
115
115
115
115
113
112
111
110
111
111
110
110
110
110
110
110
111
111
111
111
110
109
108
107
197
194
188
184
181
178
174
171
169
169
167
165
162
158
155
154
155
152
152
152
150
148
150
155
150
144
143
146
146
139
132
129
127
133
135
130
123
120
118
116
119
119
119
118
117
115
113
112
113
113
113
113
114
114
114
114
114
113
112
111
110
109
109
109
199
195
191
187
184
181
177
174
170
169
167
165
161
158
156
154
157
156
154
153
152
151
152
154
151
145
143
146
146
141
135
132
131
134
136
134
129
125
122
120
122
122
122
121
119
117
115
114
115
115
116
116
116
116
117
117
116
114
112
110
109
109
110
110
199
196
192
190
187
184
180
177
171
170
167
164
161
159
157
156
158
158
155
153
152
153
154
153
151
145
144
147
148
143
137
135
133
135
137
137
134
129
125
124
124
123
123
122
121
119
118
117
118
118
118
118
118
118
118
118
116
114
112
110
108
108
109
109
200
198
195
192
190
187
183
179
172
170
168
165
163
161
160
159
160
159
156
152
152
156
155
152
150
145
145
149
150
145
139
136
135
134
137
140
138
131
127
126
125
125
125
125
124
123
122
121
122
122
121
121
120
120
119
119
116
115
113
111
109
108
108
108
203
201
198
195
192
188
183
179
173
172
170
167
166
165
165
165
161
162
158
153
154
158
157
151
149
145
146
151
153
147
139
136
136
134
136
142
141
133
128
128
126
127
127
128
128
127
126
126
127
126
125
124
123
122
121
121
116
116
115
114
112
110
109
108
207
204
200
197
193
188
181
177
175
174
172
169
168
168
168
169
163
164
159
154
155
160
159
152
148
145
146
153
154
148
140
136
137
133
136
142
142
134
128
128
128
128
129
130
130
130
130
129
130
130
129
127
126
124
123
122
117
117
117
117
115
112
110
108
206
203
198
195
192
189
185
182
180
178
175
173
172
171
168
165
163
164
165
164
162
159
155
153
146
149
155
158
156
151
143
139
140
140
141
141
140
139
138
138
132
132
131
131
132
133
134
135
132
132
131
130
127
123
120
118
124
121
118
119
120
118
112
107
208
205
201
198
195
192
187
184
182
180
177
175
174
173
170
167
167
167
167
166
164
161
157
155
150
153
157
159
158
153
147
144
141
142
142
142
142
143
143
143
137
137
136
135
134
134
135
135
135
135
134
132
129
126
123
121
123
124
124
123
122
121
121
122
211
208
204
201
198
195
191
188
185
182
180
178
177
175
172
170
171
171
171
169
166
163
160
158
157
158
160
161
160
157
153
151
145
145
144
144
144
146
148
149
144
143
141
139
138
137
137
136
138
138
137
135
133
131
128
127
125
128
130
128
123
122
125
129
213
210
206
203
201
198
194
191
187
185
182
180
179
178
175
172
174
174
173
171
168
165
162
160
162
163
163
163
162
160
159
157
152
150
148
147
146
148
150
151
147
146
144
143
141
140
140
140
140
140
139
138
136
135
133
132
130
132
133
130
126
123
123
124
214
211
208
205
203
200
197
194
189
187
184
182
182
180
177
175
176
175
174
172
169
166
164
163
166
166
166
165
165
164
163
163
159
157
154
151
149
149
150
151
149
148
146
145
144
144
144
144
142
141
141
139
139
138
138
137
135
134
133
133
133
130
124
120
216
213
210
207
206
203
200
197
193
191
188
186
185
183
181
178
177
176
175
173
171
169
168
167
170
170
170
169
169
168
168
168
165
163
160
157
155
153
153
153
152
151
150
148
147
147
147
147
144
144
143
142
142
142
143
143
141
138
136
137
139
138
132
126
219
216
213
211
209
207
203
200
198
195
192
191
190
188
185
183
179
178
177
175
174
173
172
172
174
174
174
174
174
173
172
172
168
167
166
164
162
160
159
158
159
157
155
153
151
149
149
148
147
147
146
145
145
146
148
148
148
146
142
139
137
136
135
134
221
219
215
213
212
209
206
203
201
199
196
194
193
191
189
186
180
179
178
177
176
176
176
176
176
177
177
178
177
177
176
175
169
169
169
168
167
165
164
163
164
162
160
156
153
151
149
148
150
149
148
148
148
149
151
152
155
153
148
139
131
128
132
137
222
220
218
215
212
210
207
206
202
201
200
198
196
194
192
192
187
187
185
184
182
180
179
178
180
181
182
183
183
183
181
180
175
173
170
169
168
167
165
162
158
157
156
154
153
153
153
153
157
156
155
155
155
155
155
156
160
158
154
150
145
137
128
121
222
221
219
216
213
210
208
207
203
202
201
199
197
195
193
192
190
189
188
186
184
183
182
181
183
184
185
186
186
185
184
183
177
175
172
170
170
168
166
163
159
158
157
156
155
154
154
155
160
159
159
158
158
159
159
159
161
160
160
159
154
146
136
129
222
221
219
217
214
211
209
208
204
203
202
200
198
196
195
194
192
192
191
189
188
186
185
185
186
187
189
189
189
188
187
186
180
178
175
173
172
170
167
165
161
161
159
158
158
157
157
158
164
164
164
164
164
164
164
164
162
164
166
167
165
157
147
140
223
222
220
218
215
213
211
210
206
205
204
202
200
198
197
196
194
194
193
192
190
189
188
188
189
190
191
192
191
190
188
187
183
181
178
176
174
172
169
167
164
164
163
162
161
161
161
162
167
167
168
168
168
168
168
168
165
166
168
170
169
164
156
150
224
223
221
219
216
214
213
212
208
207
206
204
202
200
199
198
196
195
195
194
192
191
191
190
190
191
192
192
192
190
189
188
185
182
179
178
177
175
172
170
167
167
166
165
165
165
166
166
168
169
170
171
172
172
171
171
168
167
166
166
166
163
159
155
224
223
222
220
218
216
214
213
210
209
208
206
204
202
201
200
198
197
197
196
195
194
194
193
191
192
193
193
192
191
189
188
185
182
180
179
178
177
174
172
170
170
169
169
168
169
169
170
170
171
173
175
175
175
174
173
170
168
166
164
163
161
157
155
225
224
223
221
219
217
215
215
212
211
209
207
205
203
202
201
201
200
200
199
198
198
197
197
193
194
195
195
194
192
190
189
183
181
179
179
179
178
176
174
173
172
172
171
171
172
172
173
172
173
176
178
179
178
177
176
173
171
169
167
165
160
155
150
225
224
223
221
219
217
216
215
212
212
210
208
206
204
203
202
203
203
202
202
201
200
200
200
195
196
196
196
195
193
191
190
182
181
179
179
179
179
178
176
174
173
173
172
173
173
174
175
173
175
178
180
181
181
179
178
174
173
172
171
168
161
153
147
